<?xml version="1.0" standalone="no"?><!DOCTYPE svg PUBLIC "-//W3C//DTD SVG 1.1//EN" "http://www.w3.org/Graphics/SVG/1.1/DTD/svg11.dtd"><svg t="1774155103570" class="icon" viewBox="0 0 1024 1024" version="1.1" xmlns="http://www.w3.org/2000/svg" p-id="1691" xmlns:xlink="http://www.w3.org/1999/xlink" width="200" height="200"><path d="M285.474133 631.466667l-5.085866-28.023467A34.133333 34.133333 0 0 1 313.9584 563.2H477.866667v-69.205333c-76.8-8.482133-136.533333-73.591467-136.533334-152.661334v-153.6h51.2c17.117867-23.4496 49.8688-45.7216 66.986667-57.4464A300.373333 300.373333 0 0 1 510.890667 102.4s25.685333 10.308267 51.370666 27.886933c11.4176 7.816533 34.474667 26.965333 69.205334 57.4464h51.2v153.6c0 79.069867-59.733333 144.1792-136.533334 152.661334V563.2h163.908267a34.133333 34.133333 0 0 1 33.570133 40.2432L738.525867 631.466667H768l17.066667-125.2864A102.434133 102.434133 0 0 1 716.8 409.6v-34.133333a102.4 102.4 0 1 1 204.8 0v34.133333a102.434133 102.434133 0 0 1-68.266667 96.580267L836.266667 631.466667h119.125333A34.304 34.304 0 0 1 989.866667 665.6c0 2.491733-0.273067 4.9664-0.8192 7.406933L944.7424 870.4H955.733333a34.133333 34.133333 0 1 1 0 68.266667H68.266667a34.133333 34.133333 0 1 1 0-68.266667h10.990933L34.952533 673.006933A33.809067 33.809067 0 0 1 34.133333 665.6c0-18.858667 15.428267-34.133333 34.474667-34.133333H187.733333l-17.066666-125.2864A102.434133 102.434133 0 0 1 102.4 409.6v-34.133333a102.4 102.4 0 1 1 204.8 0v34.133333a102.434133 102.434133 0 0 1-68.266667 96.580267L256 631.466667h29.474133z m409.6 238.933333h179.712L913.066667 699.733333H726.101333l-31.0272 170.666667z m-366.148266 0l-31.0272-170.666667H110.916267l38.314666 170.666667h179.694934zM819.2 341.333333a34.133333 34.133333 0 0 0-34.133333 34.133334v34.133333a34.133333 34.133333 0 1 0 68.266666 0v-34.133333a34.133333 34.133333 0 0 0-34.133333-34.133334z m-614.4 0a34.133333 34.133333 0 0 0-34.133333 34.133334v34.133333a34.133333 34.133333 0 1 0 68.266666 0v-34.133333a34.133333 34.133333 0 0 0-34.133333-34.133334z m347.579733-131.703466c-13.9264-11.776-23.688533-19.592533-28.740266-23.04-4.061867-2.781867-8.3456-5.461333-12.7488-8.021334-4.437333 2.56-8.721067 5.256533-12.8 8.055467-14.045867 9.608533-21.0432 14.609067-29.405867 21.282133A154.333867 154.333867 0 0 1 512 244.770133a154.385067 154.385067 0 0 1 40.379733-35.157333zM546.133333 341.333333v83.626667a85.367467 85.367467 0 0 0 68.266667-83.626667v-83.626666a85.367467 85.367467 0 0 0-68.266667 83.626666z m-136.533333 0a85.367467 85.367467 0 0 0 68.266667 83.626667V341.333333a85.367467 85.367467 0 0 0-68.266667-83.626666V341.333333z m-54.7328 290.133334l43.434667 238.933333h227.396266l43.434667-238.933333H354.8672z" fill="#4CAF50" p-id="1692"></path><path d="M392.533333 665.6h238.933334l-17.066667 85.333333H409.6z" fill="#4CAF50" p-id="1693"></path></svg>